<svg width="228" height="49" viewBox="0 0 228 49" fill="none" xmlns="http://www.w3.org/2000/svg">
<path d="M36.511 21.8386C35.8937 22.4614 35.4211 23.2131 35.1267 24.0398C34.8322 24.8668 34.7233 25.7486 34.8075 26.6226L34.7782 26.5932C34.8648 27.6221 34.7264 28.6573 34.3728 29.627C34.0193 30.5965 33.459 31.4771 32.7312 32.2072C32.0033 32.9371 31.1253 33.4991 30.1584 33.8536C29.1917 34.2082 28.1593 34.347 27.1337 34.2601L27.163 34.2895C25.936 34.175 24.7037 34.4427 23.6339 35.0564C22.5642 35.67 21.7092 36.5995 21.1856 37.7184C20.662 38.8372 20.4951 40.0906 20.7078 41.3081C20.9207 42.5254 21.5025 43.6474 22.3743 44.5209C23.2461 45.3944 24.3653 45.977 25.5792 46.1892C26.7933 46.4015 28.0429 46.2329 29.158 45.7068C30.2731 45.1806 31.1991 44.3224 31.8099 43.249C32.4208 42.1756 32.6868 40.9395 32.5715 39.7089L32.6024 39.7383C32.5158 38.7096 32.654 37.6743 33.0076 36.7046C33.3612 35.735 33.9215 34.8545 34.6494 34.1244C35.3773 33.3944 36.2553 32.8324 37.222 32.478C38.1889 32.1234 39.2211 31.9845 40.2469 32.0714L40.216 32.042C41.2182 32.1324 42.2271 31.9676 43.149 31.5628C44.0708 31.1581 44.876 30.5265 45.4896 29.7266C46.1033 28.9268 46.5058 27.9843 46.6596 26.987C46.8135 25.9896 46.7138 24.9694 46.3699 24.0207C46.0259 23.0723 45.4487 22.2262 44.6919 21.5609C43.9351 20.8957 43.0231 20.4328 42.0405 20.2152C41.0578 19.9977 40.0362 20.0323 39.0704 20.316C38.1047 20.5999 37.2261 21.1235 36.5159 21.8386H36.511Z" fill="white"/>
<path d="M24.4969 30.4412L24.466 30.4118C25.3378 30.4999 26.2182 30.3926 27.0437 30.0976C27.869 29.8026 28.6188 29.3275 29.2387 28.7063C29.8583 28.0852 30.3329 27.3335 30.6275 26.5059C30.9223 25.6783 31.0299 24.7955 30.9428 23.921L30.9738 23.9504C30.8871 22.9215 31.0255 21.8863 31.3789 20.9166C31.7325 19.9471 32.2929 19.0665 33.0207 18.3364C33.7487 17.6065 34.6266 17.0445 35.5934 16.69C36.5602 16.3354 37.5924 16.1967 38.6183 16.2835L38.5873 16.2541C39.8145 16.3698 41.0471 16.1028 42.1174 15.4899C43.1879 14.8769 44.0435 13.9478 44.5679 12.8292C45.0923 11.7106 45.2599 10.4569 45.0479 9.23927C44.8358 8.0216 44.2544 6.89921 43.3828 6.02515C42.5114 5.1511 41.3922 4.56794 40.1781 4.35524C38.964 4.14253 37.7141 4.31062 36.5987 4.83659C35.4833 5.36254 34.5569 6.22077 33.9457 7.29422C33.3345 8.36764 33.0684 9.60403 33.1837 10.8347L33.1544 10.8037C33.2412 11.8325 33.1031 12.8679 32.7497 13.8377C32.3963 14.8074 31.8359 15.6881 31.1081 16.4183C30.3801 17.1482 29.502 17.7102 28.5351 18.0647C27.5681 18.4191 26.5357 18.5576 25.5099 18.4705L25.5392 18.5016C24.6674 18.4135 23.7869 18.5209 22.9615 18.8158C22.1361 19.1106 21.3864 19.5859 20.7665 20.2071C20.1467 20.8283 19.6723 21.5799 19.3775 22.4075C19.0829 23.2351 18.9753 24.118 19.0624 24.9924L19.0331 24.963C19.1194 25.9917 18.9808 27.0269 18.6272 27.9965C18.2735 28.9659 17.7133 29.8464 16.9855 30.5763C16.2576 31.3063 15.3797 31.8681 14.4131 32.2229C13.4464 32.5775 12.4142 32.7165 11.3886 32.6299L11.4179 32.6593C10.1908 32.5437 8.95799 32.8106 7.88768 33.4235C6.81738 34.0365 5.96165 34.9656 5.43723 36.0842C4.9128 37.2029 4.74519 38.4565 4.95727 39.6742C5.16936 40.8918 5.75083 42.0142 6.62233 42.8882C7.49384 43.7624 8.61296 44.3455 9.82708 44.5581C11.0412 44.7708 12.2912 44.6027 13.4065 44.0768C14.5219 43.5509 15.4483 42.6927 16.0595 41.6193C16.6707 40.5457 16.9368 39.3094 16.8215 38.0787L16.8524 38.1081C16.7658 37.0793 16.9042 36.0441 17.2578 35.0744C17.6112 34.1048 18.1716 33.2243 18.8994 32.4942C19.6273 31.7642 20.5053 31.2022 21.472 30.8478C22.4389 30.4932 23.4711 30.3544 24.4969 30.4412Z" fill="white"/>
<path d="M13.5823 27.1589C14.1996 26.5363 14.6722 25.7846 14.9663 24.9577C15.2605 24.1307 15.3691 23.2487 15.2842 22.3749L15.3151 22.4043C15.2285 21.3753 15.3668 20.3396 15.7206 19.3697C16.0743 18.3998 16.6349 17.5191 17.3632 16.789C18.0915 16.059 18.9698 15.4971 19.937 15.1428C20.9042 14.7884 21.9369 14.6501 22.9629 14.7374L22.9319 14.708C24.1586 14.8233 25.3909 14.5562 26.4607 13.9433C27.5305 13.3305 28.3857 12.4015 28.9099 11.2833C29.434 10.165 29.6014 8.91183 29.3894 7.69462C29.1774 6.47741 28.596 5.35544 27.7248 4.48171C26.8537 3.60797 25.7349 3.025 24.5213 2.81231C23.3077 2.5996 22.0581 2.76754 20.9431 3.29318C19.8281 3.81882 18.9019 4.6766 18.2908 5.74953C17.6796 6.82247 17.4134 8.05835 17.5283 9.28861L17.499 9.25921C17.5857 10.288 17.4472 11.3233 17.0937 12.2929C16.7401 13.2625 16.1799 14.1431 15.452 14.8731C14.7241 15.6031 13.8461 16.165 12.8793 16.5195C11.9126 16.8741 10.8803 17.013 9.85452 16.9261L9.88383 16.9555C8.88156 16.8653 7.87281 17.0304 6.95107 17.4353C6.02933 17.8403 5.22441 18.472 4.61091 19.272C3.99741 20.0719 3.59518 21.0143 3.44148 22.0116C3.28779 23.0091 3.38761 24.0293 3.73167 24.9776C4.07574 25.9261 4.65296 26.772 5.4098 27.4371C6.16665 28.1023 7.07865 28.565 8.0613 28.7826C9.04393 29 10.0654 28.9652 11.0311 28.6815C11.9968 28.3976 12.8754 27.874 13.5856 27.1589H13.5823Z" fill="white"/>
<path d="M64.0305 10.8672H68.8674V34.4738H64.0305V10.8672Z" fill="white"/>
<path d="M71.6067 26.3934C71.6 24.6971 72.0954 23.0366 73.0302 21.6228C73.965 20.209 75.2972 19.1052 76.858 18.4514C78.4188 17.7974 80.1379 17.6228 81.7978 17.9496C83.4576 18.2764 84.9834 19.0898 86.1819 20.2871C87.3804 21.4841 88.1976 23.0111 88.5301 24.6745C88.8627 26.3379 88.6954 28.0629 88.0497 29.6309C87.404 31.1987 86.3088 32.5394 84.9028 33.4824C83.4967 34.4257 81.8434 34.9292 80.1518 34.9292C79.0291 34.9422 77.9149 34.7303 76.8746 34.3063C75.8343 33.8823 74.8887 33.2546 74.0932 32.46C73.2975 31.6652 72.6679 30.7193 72.241 29.6778C71.814 28.6362 71.5984 27.5196 71.6067 26.3934ZM83.86 26.3934C83.8399 25.6622 83.6052 24.9532 83.1855 24.3549C82.7656 23.7568 82.1794 23.2958 81.4999 23.0301C80.8203 22.7642 80.0778 22.7051 79.365 22.8602C78.6522 23.0154 78.0008 23.3777 77.4922 23.9021C76.9837 24.4264 76.6404 25.0896 76.5057 25.8086C76.3709 26.5274 76.4502 27.2702 76.7341 27.9441C77.0179 28.618 77.4935 29.193 78.1013 29.5972C78.7092 30.0015 79.4225 30.2171 80.1518 30.2171C80.6513 30.2305 81.1481 30.1398 81.6111 29.951C82.074 29.7622 82.4929 29.4793 82.8412 29.1201C83.1896 28.7608 83.4601 28.333 83.6353 27.8638C83.8107 27.3945 83.8872 26.8939 83.86 26.3934Z" fill="white"/>
<path d="M107.974 18.3099V33.6633C107.974 39.0957 103.75 41.3922 99.4617 41.3922C97.952 41.5056 96.4402 41.1996 95.0923 40.5082C93.7444 39.8167 92.6124 38.7663 91.8205 37.4722L95.9473 35.0794C96.2801 35.7539 96.8106 36.3104 97.4674 36.6745C98.1243 37.0384 98.8764 37.1926 99.6229 37.1161C100.1 37.1825 100.586 37.1403 101.045 36.9928C101.503 36.8453 101.923 36.5963 102.273 36.2642C102.623 35.932 102.894 35.5253 103.066 35.0738C103.238 34.6225 103.306 34.1382 103.266 33.6567V32.1786C102.7 32.8736 101.979 33.4258 101.161 33.7908C100.343 34.1559 99.4519 34.3236 98.5579 34.2807C96.4306 34.2134 94.413 33.3186 92.932 31.7856C91.4509 30.2527 90.6228 28.2019 90.6228 26.0675C90.6228 23.933 91.4509 21.8822 92.932 20.3493C94.413 18.8163 96.4306 17.9215 98.5579 17.8542C99.4519 17.8113 100.343 17.979 101.161 18.3441C101.979 18.7091 102.7 19.2614 103.266 19.9563V18.3067L107.974 18.3099ZM103.268 26.0699C103.3 25.2882 103.099 24.5145 102.689 23.8486C102.279 23.1825 101.68 22.6548 100.969 22.3332C100.258 22.0114 99.4673 21.9106 98.6984 22.0436C97.9296 22.1765 97.218 22.5372 96.6552 23.0793C96.0925 23.6212 95.7044 24.3196 95.5408 25.0847C95.3773 25.8497 95.4457 26.6465 95.7375 27.3722C96.0292 28.0979 96.5308 28.7195 97.1776 29.1569C97.8245 29.5943 98.5872 29.8276 99.3673 29.8266C99.8755 29.8622 100.385 29.7906 100.864 29.6165C101.343 29.4424 101.781 29.1695 102.148 28.8157C102.515 28.4618 102.805 28.0346 102.998 27.5616C103.191 27.0888 103.283 26.5806 103.268 26.0699Z" fill="white"/>
<path d="M110.714 26.3934C110.707 24.6971 111.202 23.0366 112.137 21.6228C113.072 20.209 114.404 19.1052 115.965 18.4514C117.526 17.7974 119.245 17.6228 120.905 17.9496C122.565 18.2764 124.09 19.0898 125.289 20.2871C126.487 21.4841 127.305 23.0111 127.637 24.6745C127.97 26.3379 127.802 28.0629 127.157 29.6309C126.511 31.1987 125.416 32.5394 124.01 33.4824C122.604 34.4257 120.95 34.9292 119.259 34.9292C118.136 34.9422 117.022 34.7303 115.982 34.3063C114.941 33.8823 113.996 33.2546 113.2 32.46C112.404 31.6652 111.775 30.7193 111.348 29.6778C110.921 28.6362 110.705 27.5196 110.714 26.3934ZM122.967 26.3934C122.947 25.6622 122.712 24.9532 122.292 24.3549C121.873 23.7568 121.286 23.2958 120.607 23.0301C119.927 22.7642 119.185 22.7051 118.472 22.8602C117.759 23.0154 117.108 23.3777 116.599 23.9021C116.091 24.4264 115.747 25.0896 115.613 25.8086C115.478 26.5274 115.557 27.2702 115.841 27.9441C116.125 28.618 116.6 29.193 117.208 29.5972C117.816 30.0015 118.529 30.2171 119.259 30.2171C119.758 30.2305 120.255 30.1398 120.718 29.951C121.181 29.7622 121.6 29.4793 121.948 29.1201C122.296 28.7608 122.567 28.333 122.742 27.8638C122.918 27.3945 122.994 26.8939 122.967 26.3934Z" fill="white"/>
<path d="M130.059 13.9731C130.059 13.3974 130.23 12.8347 130.548 12.3561C130.867 11.8774 131.321 11.5044 131.851 11.2841C132.381 11.0638 132.965 11.0061 133.528 11.1184C134.091 11.2307 134.608 11.5079 135.014 11.915C135.419 12.322 135.696 12.8407 135.808 13.4053C135.92 13.9699 135.862 14.5551 135.643 15.0869C135.423 15.6188 135.051 16.0734 134.574 16.3932C134.097 16.713 133.536 16.8837 132.961 16.8837C132.194 16.876 131.46 16.567 130.918 16.0227C130.375 15.4785 130.067 14.7427 130.059 13.9731ZM130.548 18.3063H135.386V34.4763H130.541L130.548 18.3063Z" fill="white"/>
<path d="M156.271 26.3902C156.327 27.4589 156.172 28.5281 155.814 29.5363C155.457 30.5446 154.904 31.472 154.188 32.2653C153.472 33.0584 152.606 33.702 151.641 34.1586C150.676 34.6152 149.631 34.876 148.565 34.926C147.668 34.975 146.773 34.8234 145.942 34.4822C145.111 34.1408 144.367 33.6185 143.762 32.9529V40.9416H138.925V18.3052H143.762V19.8242C144.367 19.1591 145.112 18.6371 145.942 18.2962C146.773 17.9552 147.669 17.8038 148.565 17.8528C149.631 17.9026 150.677 18.1633 151.642 18.6199C152.607 19.0766 153.473 19.7201 154.189 20.5136C154.905 21.3071 155.458 22.2348 155.815 23.2434C156.173 24.2518 156.328 25.3213 156.271 26.3902ZM151.434 26.3902C151.415 25.6335 151.174 24.8991 150.741 24.2789C150.308 23.6589 149.703 23.1807 149 22.9043C148.297 22.6278 147.529 22.5652 146.791 22.7247C146.053 22.8839 145.379 23.2579 144.852 23.7999C144.325 24.342 143.969 25.0277 143.829 25.7716C143.688 26.5155 143.77 27.2841 144.063 27.9817C144.356 28.6793 144.848 29.2745 145.477 29.6931C146.106 30.1116 146.844 30.3349 147.599 30.3347C148.117 30.3579 148.635 30.2708 149.117 30.0794C149.599 29.8881 150.036 29.5966 150.398 29.2242C150.76 28.8516 151.039 28.4067 151.218 27.9183C151.397 27.43 151.471 26.9091 151.434 26.3902Z" fill="white"/>
<path d="M171.197 29.6249C171.197 33.344 167.974 34.9283 164.492 34.9283C163.085 35.0561 161.673 34.7578 160.437 34.0717C159.201 33.3857 158.199 32.3436 157.559 31.0802L161.75 28.6874C161.919 29.2713 162.283 29.7794 162.781 30.1265C163.279 30.4737 163.881 30.6392 164.486 30.5951C165.645 30.5951 166.227 30.239 166.227 29.5939C166.227 27.8135 158.294 28.7527 158.294 23.1585C158.294 19.6322 161.261 17.8551 164.614 17.8551C165.875 17.8151 167.122 18.115 168.228 18.7234C169.334 19.332 170.257 20.2267 170.901 21.3145L166.774 23.5456C166.593 23.1221 166.292 22.7613 165.907 22.5083C165.523 22.2553 165.074 22.1214 164.614 22.123C163.776 22.123 163.259 22.4497 163.259 23.0279C163.266 24.8719 171.197 23.642 171.197 29.6249Z" fill="white"/>
<path d="M188.865 18.3086V34.4786H184.029V32.958C183.47 33.6289 182.762 34.1576 181.96 34.5006C181.159 34.8436 180.289 34.9911 179.42 34.931C176.163 34.931 173.394 32.6035 173.394 28.2344V18.3086H178.231V27.5239C178.19 27.909 178.234 28.2984 178.36 28.6647C178.483 29.0313 178.687 29.3661 178.954 29.6459C179.221 29.9257 179.545 30.1437 179.905 30.285C180.263 30.4263 180.649 30.4874 181.035 30.4639C182.809 30.4639 184.033 29.43 184.033 27.1335V18.3135L188.865 18.3086Z" fill="white"/>
<path d="M216.6 24.5509V34.4783H211.763V24.9707C211.763 23.3537 210.99 22.3198 209.442 22.3198C207.83 22.3198 206.926 23.4517 206.926 25.3594V34.4783H202.091V24.9707C202.091 23.3537 201.318 22.3198 199.769 22.3198C198.156 22.3198 197.254 23.4517 197.254 25.3594V34.4783H192.417V18.3083H197.254V19.7947C197.756 19.1353 198.414 18.6123 199.168 18.2737C199.923 17.935 200.751 17.7914 201.575 17.8559C202.402 17.8152 203.226 17.9905 203.967 18.3644C204.707 18.7381 205.337 19.298 205.798 19.989C206.333 19.266 207.044 18.691 207.861 18.318C208.679 17.9449 209.578 17.786 210.473 17.8559C214.175 17.8575 216.6 20.5084 216.6 24.5509Z" fill="white"/>
<path d="M220.691 18.2075C222.673 18.2075 224.28 16.5958 224.28 14.6077C224.28 12.6195 222.673 11.0078 220.691 11.0078C218.709 11.0078 217.102 12.6195 217.102 14.6077C217.102 16.5958 218.709 18.2075 220.691 18.2075Z" fill="white"/>
</svg>
